
<svg width="612px" height="612px" viewBox="1 90 612 612" version="1.1" xmlns="http://www.w3.org/2000/svg" xmlns:xlink="http://www.w3.org/1999/xlink">
    <!-- Generator: Sketch 42 (36781) - http://www.bohemiancoding.com/sketch -->
    <desc>Created with Sketch.</desc>
    <defs></defs>
    <g id="pawn-(1)-copy" stroke="none" stroke-width="1" fill="none" fill-rule="evenodd" transform="translate(1.000000, 90.000000)">
        <circle id="Oval" fill="#FAFAFA" fill-rule="nonzero" cx="306" cy="306" r="306"></circle>
        <path d="M520.252,512.168 C519.645,510.509 518.994,508.878 518.273,507.286 C517.666,505.622 517.011,503.991 516.294,502.39 C515.688,500.73 515.041,499.105 514.315,497.508 C513.708,495.849 513.062,494.219 512.336,492.626 C511.748,491.001 511.112,489.403 510.409,487.845 C509.577,485.196 508.535,482.657 507.401,480.162 C506.797,478.503 506.14,476.872 505.422,475.28 C504.82,473.616 504.165,471.99 503.443,470.389 C502.839,468.734 502.19,467.1 501.464,465.507 C500.861,463.843 500.211,462.213 499.485,460.615 C498.881,458.957 498.232,457.326 497.506,455.734 C496.902,454.075 496.243,452.444 495.527,450.85 C494.925,449.204 494.279,447.579 493.566,445.999 C492.959,444.326 492.295,442.684 491.568,441.074 C490.961,439.415 490.307,437.785 489.589,436.188 C488.985,434.529 488.331,432.898 487.61,431.303 C487.003,429.647 486.357,428.015 485.631,426.415 C485.027,424.756 484.378,423.126 483.652,421.533 C483.045,419.869 482.399,418.244 481.673,416.651 C481.069,414.983 480.41,413.357 479.693,411.756 C479.091,410.111 478.455,408.495 477.738,406.907 C477.134,405.253 476.485,403.628 475.763,402.04 C474.945,399.41 473.909,396.881 472.784,394.404 C472.18,392.745 471.527,391.115 470.805,389.518 C470.203,387.859 469.548,386.228 468.826,384.635 C468.222,382.971 467.573,381.345 466.847,379.745 C466.249,378.088 465.594,376.456 464.868,374.858 C464.266,373.212 463.625,371.591 462.907,370.009 C462.301,368.333 461.641,366.696 460.919,365.089 C460.312,363.425 459.661,361.799 458.94,360.205 C458.335,358.542 457.675,356.91 456.961,355.312 C456.354,353.653 455.698,352.023 454.982,350.429 C454.378,348.772 453.718,347.141 453.001,345.543 C452.397,343.884 451.743,342.253 451.022,340.659 C450.424,339.013 449.788,337.388 449.062,335.809 C448.458,334.13 447.794,332.493 447.07,330.883 C446.466,329.226 445.817,327.594 445.091,325.996 C444.487,324.338 443.838,322.707 443.112,321.113 C442.508,319.45 441.851,317.823 441.133,316.23 C440.535,314.589 439.895,312.979 439.183,311.402 C438.356,308.771 437.326,306.238 436.197,303.761 C435.597,302.116 434.956,300.495 434.234,298.917 C433.63,297.244 432.972,295.599 432.249,293.988 C431.643,292.329 430.983,290.698 430.27,289.101 C429.666,287.442 429.008,285.811 428.291,284.22 C427.684,282.561 427.024,280.926 426.302,279.333 C425.703,277.669 425.049,276.039 424.323,274.442 C423.723,272.783 423.068,271.152 422.346,269.56 C421.742,267.896 421.088,266.266 420.367,264.674 C419.766,263.029 419.119,261.408 418.405,259.831 C417.801,258.158 417.136,256.513 416.414,254.906 C415.81,253.242 415.147,251.612 414.435,250.02 C413.831,248.361 413.172,246.73 412.456,245.133 C411.85,243.474 411.197,241.843 410.473,240.247 C409.869,238.588 409.22,236.957 408.494,235.365 C407.89,233.706 407.24,232.075 406.516,230.479 C405.928,228.853 405.287,227.251 404.584,225.688 C403.752,223.044 402.71,220.505 401.576,218.014 C400.975,216.355 400.323,214.724 399.597,213.132 C398.999,211.468 398.344,209.838 397.618,208.241 C397.017,206.582 396.365,204.951 395.639,203.359 C395.041,201.7 394.386,200.07 393.664,198.473 C393.06,196.814 392.404,195.183 391.685,193.591 C391.082,191.932 390.427,190.301 389.706,188.705 C389.104,187.059 388.458,185.439 387.744,183.857 C387.139,182.184 386.474,180.539 385.747,178.932 C385.143,177.268 384.486,175.638 383.768,174.041 C383.165,172.382 382.515,170.751 381.789,169.159 C381.185,167.5 380.535,165.87 379.81,164.273 C379.207,162.614 378.552,160.983 377.831,159.391 C377.227,157.732 376.57,156.101 375.852,154.505 C375.254,152.86 374.604,151.239 373.892,149.657 C373.288,147.984 372.624,146.339 371.893,144.732 C371.295,143.073 370.635,141.442 369.914,139.846 C369.307,138.187 368.653,136.552 367.935,134.959 C358.54,109.184 333.984,90.8 305.024,90.8 C303.227,90.8 301.46,90.528 299.703,90.69 C298.283,90.8 296.887,90.8 295.495,90.8 L295.461,90.8 L295.461,91.178 C261.992,95.83 238.081,123.82 238.081,157.546 C238.081,163.37 238.86,169.002 240.257,174.391 C240.429,175.151 240.553,175.921 240.749,176.671 C241.992,182.184 243.895,187.448 246.429,192.368 C247.658,196.69 249.317,200.84 251.349,204.765 C252.563,209.015 254.203,213.094 256.207,216.957 C257.426,221.193 259.057,225.267 261.055,229.12 C261.093,229.259 261.141,229.393 261.175,229.532 C256.307,229.967 252.43,234.04 252.43,239.018 C252.43,240.548 252.827,241.977 253.477,243.264 C253.468,243.446 253.42,243.618 253.42,243.8 C253.42,246.028 254.223,248.055 255.514,249.686 C255.729,251.479 256.422,253.114 257.493,254.467 C257.708,256.26 258.396,257.89 259.472,259.243 C259.678,261.041 260.375,262.676 261.451,264.029 C261.657,265.822 262.354,267.457 263.426,268.81 C263.636,270.603 264.334,272.238 265.405,273.591 C265.615,275.384 266.313,277.019 267.384,278.372 C267.594,280.165 268.293,281.8 269.363,283.153 C269.573,284.946 270.272,286.581 271.342,287.934 C271.4,288.417 271.476,288.881 271.61,289.34 C265.49,342.423 251.447,406.882 218.959,463.736 L214.178,463.736 C208.919,463.736 204.615,468.04 204.615,473.299 C204.615,474.838 205.017,476.278 205.672,477.57 C205.811,479.503 206.533,481.195 207.671,482.549 C207.748,483.424 207.924,484.25 208.221,485.028 C206.046,486.784 204.616,489.435 204.616,492.439 C204.616,493.946 205.003,495.355 205.635,496.634 C205.692,498.53 206.281,500.394 207.28,501.998 L195.054,501.998 C189.795,501.998 185.491,506.297 185.491,511.561 C185.491,513.085 185.888,514.52 186.538,515.805 C186.529,515.991 186.481,516.159 186.481,516.341 C186.481,518.57 187.284,520.596 188.575,522.229 C188.79,524.022 189.483,525.658 190.554,527.008 C190.769,528.801 191.457,530.431 192.533,531.779 C192.739,533.582 193.436,535.217 194.512,536.57 C194.718,538.363 195.415,539.998 196.487,541.35 C196.697,543.143 197.395,544.779 198.466,546.129 C198.676,547.922 199.374,549.559 200.445,550.909 C200.655,552.702 201.354,554.338 202.424,555.69 C202.634,557.483 203.333,559.118 204.403,560.47 C204.613,562.263 205.312,563.899 206.382,565.249 C206.592,567.042 207.281,568.672 208.357,570.02 C208.567,571.824 209.261,573.458 210.336,574.811 C210.546,576.604 211.24,578.24 212.315,579.592 C212.521,581.385 213.219,583.02 214.294,584.371 C214.5,586.164 215.198,587.801 216.273,589.151 C216.479,590.944 217.177,592.58 218.252,593.931 C218.458,595.724 219.155,597.36 220.231,598.712 C220.288,599.186 220.456,599.608 220.575,600.056 C247.396,607.797 275.701,612 305,612 C390.594,612 467.945,576.814 523.479,520.162 C523.081,519.119 522.685,518.072 522.226,517.058 C521.634,515.399 520.974,513.765 520.252,512.168 Z" id="Shape" fill="#F5F5F5" fill-rule="nonzero"></path>
        <path d="M333.688,196.031 L305,196.031 L276.312,196.031 C276.312,239.062 276.312,363.375 218.937,463.781 L305,463.781 L391.063,463.781 C333.688,363.375 333.688,239.063 333.688,196.031 Z" id="Shape" fill="#E0E0E0" fill-rule="nonzero"></path>
        <path d="M333.688,196.031 L314.563,196.031 C314.563,239.062 314.563,363.375 371.938,463.781 L391.063,463.781 C333.688,363.375 333.688,239.063 333.688,196.031 Z" id="Shape" fill="#BDBDBD" fill-rule="nonzero"></path>
        <path d="M371.938,157.781 C371.938,194.759 342,224.719 305,224.719 C268.041,224.719 238.062,194.76 238.062,157.781 C238.062,120.798 268.041,90.843 305,90.843 C341.997,90.844 371.938,120.798 371.938,157.781 Z" id="Shape" fill="#E0E0E0" fill-rule="nonzero"></path>
        <path d="M305,90.844 C301.739,90.844 298.564,91.157 295.442,91.604 C327.887,96.251 352.812,124.054 352.812,157.781 C352.812,191.508 327.887,219.311 295.442,223.958 C298.564,224.408 301.739,224.718 305,224.718 C341.997,224.718 371.938,194.759 371.938,157.78 C371.938,120.798 341.997,90.844 305,90.844 Z" id="Shape" fill="#BDBDBD" fill-rule="nonzero"></path>
        <path d="M348.031,219.938 C348.031,225.197 343.724,229.501 338.468,229.501 L271.53,229.501 C266.271,229.501 261.967,225.198 261.967,219.938 L261.967,219.938 C261.967,214.679 266.27,210.375 271.53,210.375 L338.468,210.375 C343.729,210.375 348.031,214.678 348.031,219.938 L348.031,219.938 Z" id="Shape" fill="#212121" fill-rule="nonzero"></path>
        <g id="Group" transform="translate(204.000000, 229.000000)" fill-rule="nonzero" fill="#757575">
            <path d="M153.594,10.063 C153.594,15.322 149.291,19.626 144.031,19.626 L57.968,19.626 C52.709,19.626 48.405,15.323 48.405,10.063 L48.405,10.063 C48.405,4.804 52.708,0.5 57.968,0.5 L144.031,0.5 C149.291,0.5 153.594,4.803 153.594,10.063 L153.594,10.063 Z" id="Shape"></path>
            <path d="M201.406,244.344 C201.406,249.604 197.099,253.907 191.843,253.907 L10.156,253.907 C4.897,253.907 0.593,249.6 0.593,244.344 L0.593,244.344 C0.593,239.084 4.896,234.781 10.156,234.781 L191.844,234.781 C197.104,234.781 201.406,239.084 201.406,244.344 L201.406,244.344 Z" id="Shape"></path>
        </g>
        <path d="M395.844,463.781 L376.719,463.781 C381.979,463.781 386.282,468.084 386.282,473.344 C386.282,478.604 381.975,482.907 376.719,482.907 L395.844,482.907 C401.104,482.907 405.407,478.6 405.407,473.344 C405.407,468.088 401.104,463.781 395.844,463.781 Z" id="Shape" fill="#616161" fill-rule="nonzero"></path>
        <path d="M405.406,492.469 C405.406,497.729 401.099,502.032 395.843,502.032 L214.156,502.032 C208.897,502.032 204.593,497.725 204.593,492.469 L204.593,492.469 C204.593,487.209 208.896,482.906 214.156,482.906 L395.844,482.906 C401.104,482.906 405.406,487.209 405.406,492.469 L405.406,492.469 Z" id="Shape" fill="#212121" fill-rule="nonzero"></path>
        <path d="M424.531,511.594 C424.531,516.854 420.224,521.157 414.968,521.157 L195.031,521.157 C189.772,521.157 185.468,516.85 185.468,511.594 L185.468,511.594 C185.468,506.334 189.771,502.031 195.031,502.031 L414.969,502.031 C420.229,502.031 424.531,506.334 424.531,511.594 L424.531,511.594 Z" id="Shape" fill="#757575" fill-rule="nonzero"></path>
        <path d="M414.969,502.031 L395.844,502.031 C401.104,502.031 405.407,506.334 405.407,511.594 C405.407,516.854 401.1,521.157 395.844,521.157 L414.969,521.157 C420.229,521.157 424.532,516.85 424.532,511.594 C424.532,506.338 420.229,502.031 414.969,502.031 Z" id="Shape" fill="#616161" fill-rule="nonzero"></path>
        <path d="M395.844,482.906 L376.719,482.906 C381.979,482.906 386.282,487.209 386.282,492.469 C386.282,497.729 381.975,502.032 376.719,502.032 L395.844,502.032 C401.104,502.032 405.407,497.725 405.407,492.469 C405.407,487.213 401.104,482.906 395.844,482.906 Z" id="Shape" fill="#000000" fill-rule="nonzero"></path>
        <path d="M348.031,229.5 L328.906,229.5 C334.166,229.5 338.469,233.803 338.469,239.063 C338.469,244.323 334.166,248.626 328.906,248.626 L348.031,248.626 C353.291,248.626 357.594,244.323 357.594,239.063 C357.594,233.803 353.291,229.5 348.031,229.5 Z" id="Shape" fill="#616161" fill-rule="nonzero"></path>
        <path d="M338.469,210.375 L319.344,210.375 C324.604,210.375 328.907,214.678 328.907,219.938 C328.907,225.198 324.6,229.501 319.344,229.501 L338.469,229.501 C343.729,229.501 348.032,225.198 348.032,219.938 C348.032,214.678 343.729,210.375 338.469,210.375 Z" id="Shape" fill="#000000" fill-rule="nonzero"></path>
    </g>
</svg>
